<svg width="108" height="104" viewBox="0 0 108 104" fill="none" xmlns="http://www.w3.org/2000/svg">
<path d="M53.6957 0C44.2989 0 38.6743 1.28 35.0991 2.876C33.3092 3.676 32.0384 4.516 31.1837 5.376C30.5969 6.01505 30.1245 6.73156 29.7832 7.5C29.6429 7.82125 29.5496 8.15737 29.5058 8.5L27.1252 35.876C27.0939 36.044 27.1566 36.316 27.1252 36.5L26.8478 39.252C26.8218 39.5008 26.8218 39.7512 26.8478 40C26.8478 53.2 38.9293 64 53.6957 64C68.462 64 80.5435 53.2 80.5435 40V39.376C80.5442 39.3347 80.5442 39.2933 80.5435 39.252L77.8855 8.5C77.8417 8.15737 77.7484 7.82125 77.6081 7.5C77.6081 7.5 77.0667 6.236 76.2076 5.376C75.3529 4.512 74.0821 3.672 72.2922 2.876C68.717 1.276 63.0924 0 53.6957 0ZM53.6957 64C24.163 64 0 76.424 0 87.624V104H107.391V87.624C107.391 76.984 85.5461 65.264 58.0316 64.124C56.5882 64.0388 55.1421 63.9975 53.6957 64ZM53.6957 8C62.1975 8 66.4439 9.2 68.2382 10C68.8378 10.268 68.9094 10.372 69.0795 10.5L70.8962 31C66.7795 31.224 61.1683 32 53.6957 32C46.223 32 40.6163 31.224 36.4951 31L38.3118 10.5C38.4774 10.372 38.5535 10.268 39.1531 10C40.9474 9.2 45.1938 8 53.6957 8ZM50.0578 12V16.752H44.7464V23.252H50.0622V28H57.3291V23.248H62.6449V16.752H57.3291V12H50.0622H50.0578ZM40.2717 73L51.7402 96H8.94928V87.624C8.94928 84.644 20.3596 75.916 40.2717 73ZM67.1196 73C87.0317 75.92 98.442 84.644 98.442 87.624V96H55.6511L67.1196 73Z" fill="white"/>
</svg>
