<svg width="104" height="104" viewBox="0 0 104 104" fill="none" xmlns="http://www.w3.org/2000/svg">
<path fill-rule="evenodd" clip-rule="evenodd" d="M28.8889 75.1111V104H75.1111V75.1111H104V28.8889H75.1111V0H28.8889V28.8889H0V75.1111H28.8889ZM59.2222 30.342H51.6244C51.3557 30.3293 51.0875 30.3756 50.8387 30.4778C48.4264 31.6536 46.9127 33.7307 45.9853 36.192C45.812 36.6456 45.6647 37.1049 45.5347 37.5642H39.5893C39.8262 36.4462 40.1469 35.2907 40.5802 34.1496C41.8571 30.7667 44.1884 27.2942 48.3051 25.2836C49.3438 24.795 50.4796 24.548 51.6273 24.5613H59.2251C59.9913 24.5613 60.7261 24.8657 61.2679 25.4075C61.8096 25.9492 62.114 26.684 62.114 27.4502C62.114 28.2164 61.8096 28.9512 61.2679 29.493C60.7261 30.0347 59.9913 30.3391 59.2251 30.3391L59.2222 30.342ZM34.6667 40.4531C33.072 40.4531 31.7402 41.7704 32.1736 43.3073C33.8404 49.2556 40.6264 53.8836 49.1111 54.7502V59.2511C47.1033 59.3002 45.0176 59.462 43.2467 59.9762C41.8658 60.3807 40.4011 61.0682 39.2802 62.3278C38.1073 63.6451 37.5556 65.3091 37.5556 67.1667C37.5556 69.0242 38.1044 70.6911 39.2773 72.0113C40.3982 73.2738 41.8629 73.9671 43.2467 74.3716C44.1711 74.6402 45.1822 74.8136 46.2222 74.9233V69.108C45.7635 69.0457 45.3098 68.9511 44.8644 68.8249C44.0844 68.5938 43.7407 68.3396 43.5991 68.1778C43.5067 68.0738 43.3333 67.8398 43.3333 67.1667C43.3333 66.5022 43.5067 66.2711 43.5933 66.17C43.7378 66.0082 44.0787 65.7511 44.8644 65.5229C45.9709 65.2022 47.398 65.0809 49.1111 65.0347V80.8976H40.4444V86.6753H63.5556V80.8976H54.8889V64.9018C58.0724 64.6533 60.6522 63.9542 62.5936 62.7033C65.3236 60.9411 66.4444 58.3209 66.4444 55.5389C66.4673 54.0531 66.0987 52.5875 65.3756 51.2893C68.6227 49.2382 70.9424 46.4591 71.8264 43.3073C72.2598 41.7704 70.9309 40.4531 69.3333 40.4531H34.6667ZM54.8889 59.1009C57.226 58.8756 58.6444 58.3729 59.462 57.8471C60.3431 57.278 60.6667 56.6107 60.6667 55.5389C60.6667 54.7271 60.4818 54.1753 60.0051 53.7189C58.3387 54.2297 56.6259 54.5752 54.8918 54.7502V59.1009H54.8889Z" fill="white"/>
</svg>
