<svg width="104" height="104" viewBox="0 0 104 104" fill="none" xmlns="http://www.w3.org/2000/svg">
<path fill-rule="evenodd" clip-rule="evenodd" d="M52 18.2C52 28.2542 43.8542 36.4 33.8 36.4C23.7458 36.4 15.6 28.2542 15.6 18.2C15.6 8.1458 23.7458 0 33.8 0C43.8542 0 52 8.1458 52 18.2ZM0 55.64C0 44.5744 22.5186 39 33.8 39C40.8096 39 52.156 41.1528 59.748 45.435C55.0583 47.8869 51.0091 51.4048 47.9259 55.7059C44.8427 60.0069 42.8114 64.9713 41.9952 70.2H0V55.64ZM67.6 49.4C67.6 48.7104 67.8739 48.0491 68.3615 47.5615C68.8491 47.0739 69.5104 46.8 70.2 46.8H80.6C81.2896 46.8 81.9509 47.0739 82.4385 47.5615C82.9261 48.0491 83.2 48.7104 83.2 49.4C83.2 50.0896 82.9261 50.7509 82.4385 51.2385C81.9509 51.7261 81.2896 52 80.6 52H78V57.382C81.0117 57.8141 83.8659 58.998 86.2992 60.8244L89.9236 57.2L89.1618 56.4382C88.6882 55.9478 88.4261 55.2911 88.432 54.6094C88.438 53.9276 88.7114 53.2755 89.1935 52.7935C89.6755 52.3114 90.3276 52.038 91.0093 52.032C91.6911 52.0261 92.3478 52.2882 92.8382 52.7618L98.0382 57.9618C98.5118 58.4522 98.7739 59.1089 98.768 59.7906C98.762 60.4724 98.4886 61.1245 98.0065 61.6065C97.5245 62.0886 96.8724 62.362 96.1906 62.368C95.5089 62.3739 94.8522 62.1118 94.3618 61.6382L93.6 60.8764L89.9756 64.5008C91.802 66.9341 92.9859 69.7883 93.418 72.8H98.8V70.2C98.8 69.5104 99.0739 68.8491 99.5615 68.3615C100.049 67.8739 100.71 67.6 101.4 67.6C102.09 67.6 102.751 67.8739 103.238 68.3615C103.726 68.8491 104 69.5104 104 70.2V80.6C104 81.2896 103.726 81.9509 103.238 82.4385C102.751 82.9261 102.09 83.2 101.4 83.2C100.71 83.2 100.049 82.9261 99.5615 82.4385C99.0739 81.9509 98.8 81.2896 98.8 80.6V78H93.418C93.0762 80.3854 92.2612 82.6784 91.0208 84.7444L96.2 89.9236L96.9618 89.1618C97.4522 88.6882 98.1089 88.4261 98.7906 88.432C99.4724 88.438 100.124 88.7114 100.607 89.1935C101.089 89.6755 101.362 90.3276 101.368 91.0093C101.374 91.6911 101.112 92.3478 100.638 92.8382L95.4382 98.0382C94.9478 98.5118 94.2911 98.7739 93.6094 98.768C92.9276 98.762 92.2755 98.4886 91.7935 98.0065C91.3114 97.5245 91.038 96.8724 91.032 96.1906C91.0261 95.5089 91.2882 94.8522 91.7618 94.3618L92.5236 93.6L87.7188 88.7978C85.0209 91.2848 81.6321 92.8948 78 93.4154V98.8H80.6C81.2896 98.8 81.9509 99.0739 82.4385 99.5615C82.9261 100.049 83.2 100.71 83.2 101.4C83.2 102.09 82.9261 102.751 82.4385 103.238C81.9509 103.726 81.2896 104 80.6 104H70.2C69.5104 104 68.8491 103.726 68.3615 103.238C67.8739 102.751 67.6 102.09 67.6 101.4C67.6 100.71 67.8739 100.049 68.3615 99.5615C68.8491 99.0739 69.5104 98.8 70.2 98.8H72.8V93.418C69.7883 92.9859 66.9341 91.802 64.5008 89.9756L60.8764 93.6L61.6382 94.3618C62.1118 94.8522 62.3739 95.5089 62.368 96.1906C62.362 96.8724 62.0886 97.5245 61.6065 98.0065C61.1245 98.4886 60.4724 98.762 59.7906 98.768C59.1089 98.7739 58.4522 98.5118 57.9618 98.0382L52.7618 92.8382C52.2882 92.3478 52.0261 91.6911 52.032 91.0093C52.038 90.3276 52.3114 89.6755 52.7935 89.1935C53.2755 88.7114 53.9276 88.438 54.6094 88.432C55.2911 88.4261 55.9478 88.6882 56.4382 89.1618L57.2 89.9236L60.8244 86.2992C58.998 83.8659 57.8141 81.0117 57.382 78H52V80.6C52 81.2896 51.7261 81.9509 51.2385 82.4385C50.7509 82.9261 50.0896 83.2 49.4 83.2C48.7104 83.2 48.0491 82.9261 47.5615 82.4385C47.0739 81.9509 46.8 81.2896 46.8 80.6V70.2C46.8 69.5104 47.0739 68.8491 47.5615 68.3615C48.0491 67.8739 48.7104 67.6 49.4 67.6C50.0896 67.6 50.7509 67.8739 51.2385 68.3615C51.7261 68.8491 52 69.5104 52 70.2V72.8H57.382C57.8141 69.7883 58.998 66.9341 60.8244 64.5008L57.2 60.8764L56.4382 61.6382C55.9478 62.1118 55.2911 62.3739 54.6094 62.368C53.9276 62.362 53.2755 62.0886 52.7935 61.6065C52.3114 61.1245 52.038 60.4724 52.032 59.7906C52.0261 59.1089 52.2882 58.4522 52.7618 57.9618L57.9618 52.7618C58.4522 52.2882 59.1089 52.0261 59.7906 52.032C60.4724 52.038 61.1245 52.3114 61.6065 52.7935C62.0886 53.2755 62.362 53.9276 62.368 54.6094C62.3739 55.2911 62.1118 55.9478 61.6382 56.4382L60.8764 57.2L64.5008 60.8244C66.9341 58.998 69.7883 57.8141 72.8 57.382V52H70.2C69.5104 52 68.8491 51.7261 68.3615 51.2385C67.8739 50.7509 67.6 50.0896 67.6 49.4Z" fill="white"/>
</svg>
