<svg width="515" height="359" viewBox="0 0 515 359" fill="none" xmlns="http://www.w3.org/2000/svg">
<g opacity="0.3">
<path d="M110.367 17.3584H26.0129L26.8669 0.749512H111.221L110.367 17.3584Z" stroke="#92E3A9" stroke-linecap="round" stroke-linejoin="round"/>
<path d="M110.367 40.6152H26.0129L26.8669 24.0063H111.221L110.367 40.6152Z" stroke="#92E3A9" stroke-linecap="round" stroke-linejoin="round"/>
<path d="M110.367 63.8725H26.0129L26.8669 47.2637H111.221L110.367 63.8725Z" stroke="#92E3A9" stroke-linecap="round" stroke-linejoin="round"/>
<path d="M110.367 87.1294H26.0129L26.8669 70.5205H111.221L110.367 87.1294Z" stroke="#92E3A9" stroke-linecap="round" stroke-linejoin="round"/>
<path d="M110.367 110.398H26.0129L26.8669 93.7773H111.221L110.367 110.398Z" stroke="#92E3A9" stroke-linecap="round" stroke-linejoin="round"/>
<path d="M110.367 133.655H26.0129L26.8669 117.035H111.221L110.367 133.655Z" stroke="#92E3A9" stroke-linecap="round" stroke-linejoin="round"/>
<path d="M110.367 156.912H26.0129L26.8669 140.292H111.221L110.367 156.912Z" stroke="#92E3A9" stroke-linecap="round" stroke-linejoin="round"/>
<path d="M110.367 180.169H26.0129L26.8669 163.548H111.221L110.367 180.169Z" stroke="#92E3A9" stroke-linecap="round" stroke-linejoin="round"/>
<path d="M110.367 203.426H26.0129L26.8669 186.806H111.221L110.367 203.426Z" stroke="#92E3A9" stroke-linecap="round" stroke-linejoin="round"/>
<path d="M110.367 226.683H26.0129L26.8669 210.062H111.221L110.367 226.683Z" stroke="#92E3A9" stroke-linecap="round" stroke-linejoin="round"/>
<path d="M110.367 249.94H26.0129L26.8669 233.331H111.221L110.367 249.94Z" stroke="#92E3A9" stroke-linecap="round" stroke-linejoin="round"/>
<path d="M199.564 17.3584H115.21L116.064 0.749512H200.418L199.564 17.3584Z" stroke="#92E3A9" stroke-linecap="round" stroke-linejoin="round"/>
<path d="M199.564 40.6152H115.21L116.064 24.0063H200.418L199.564 40.6152Z" stroke="#92E3A9" stroke-linecap="round" stroke-linejoin="round"/>
<path d="M199.564 63.8725H115.21L116.064 47.2637H200.418L199.564 63.8725Z" stroke="#92E3A9" stroke-linecap="round" stroke-linejoin="round"/>
<path d="M199.564 87.1294H115.21L116.064 70.5205H200.418L199.564 87.1294Z" stroke="#92E3A9" stroke-linecap="round" stroke-linejoin="round"/>
<path d="M199.564 110.398H115.21L116.064 93.7773H200.418L199.564 110.398Z" stroke="#92E3A9" stroke-linecap="round" stroke-linejoin="round"/>
<path d="M199.564 133.655H115.21L116.064 117.035H200.418L199.564 133.655Z" stroke="#92E3A9" stroke-linecap="round" stroke-linejoin="round"/>
<path d="M199.564 156.912H115.21L116.064 140.292H200.418L199.564 156.912Z" stroke="#92E3A9" stroke-linecap="round" stroke-linejoin="round"/>
<path d="M199.564 180.169H115.21L116.064 163.548H200.418L199.564 180.169Z" stroke="#92E3A9" stroke-linecap="round" stroke-linejoin="round"/>
<path d="M199.564 203.426H115.21L116.064 186.806H200.418L199.564 203.426Z" stroke="#92E3A9" stroke-linecap="round" stroke-linejoin="round"/>
<path d="M199.564 226.683H115.21L116.064 210.062H200.418L199.564 226.683Z" stroke="#92E3A9" stroke-linecap="round" stroke-linejoin="round"/>
<path d="M199.564 249.94H115.21L116.064 233.331H200.418L199.564 249.94Z" stroke="#92E3A9" stroke-linecap="round" stroke-linejoin="round"/>
</g>
<g opacity="0.3">
<path d="M458.94 34.5518H350.057V118.582H458.94V34.5518Z" stroke="#92E3A9" stroke-linecap="round" stroke-linejoin="round"/>
<path d="M453.019 41.498H355.956V111.647H453.019V41.498Z" stroke="#92E3A9" stroke-linecap="round" stroke-linejoin="round"/>
<path d="M387.61 52.5474H421.376" stroke="#92E3A9" stroke-linecap="round" stroke-linejoin="round"/>
<path d="M365.743 62.7261H443.243" stroke="#92E3A9" stroke-linecap="round" stroke-linejoin="round"/>
<path d="M383.014 83.0718H425.972" stroke="#92E3A9" stroke-linecap="round" stroke-linejoin="round"/>
<path d="M366.507 103.429H383.396" stroke="#92E3A9" stroke-linecap="round" stroke-linejoin="round"/>
<path d="M425.59 103.429H442.467" stroke="#92E3A9" stroke-linecap="round" stroke-linejoin="round"/>
</g>
<g opacity="0.3">
<path d="M488.504 136.303H408.364V198.153H488.504V136.303Z" stroke="#92E3A9" stroke-linecap="round" stroke-linejoin="round"/>
<path d="M484.155 141.415H412.712V193.053H484.155V141.415Z" stroke="#92E3A9" stroke-linecap="round" stroke-linejoin="round"/>
<path d="M436.017 149.553H460.862" stroke="#92E3A9" stroke-linecap="round" stroke-linejoin="round"/>
<path d="M419.915 157.038H476.964" stroke="#92E3A9" stroke-linecap="round" stroke-linejoin="round"/>
<path d="M432.624 172.019H464.255" stroke="#92E3A9" stroke-linecap="round" stroke-linejoin="round"/>
<path d="M420.477 187H432.905" stroke="#92E3A9" stroke-linecap="round" stroke-linejoin="round"/>
<path d="M463.963 187H476.391" stroke="#92E3A9" stroke-linecap="round" stroke-linejoin="round"/>
</g>
<path d="M514 347.037H1" stroke="#92E3A9" stroke-linecap="round" stroke-linejoin="round"/>
<path d="M514 357.995H1" stroke="#92E3A9" stroke-linecap="round" stroke-linejoin="round"/>
<path d="M485.897 226.167H377.126C375.41 226.165 373.75 226.795 372.452 227.94C371.154 229.086 370.304 230.67 370.058 232.402L353.787 345.879H483.133L493.01 234.076C493.096 233.07 492.975 232.058 492.657 231.102C492.338 230.146 491.828 229.269 491.159 228.525C490.49 227.781 489.677 227.188 488.771 226.782C487.865 226.376 486.887 226.166 485.897 226.167Z" fill="#263238" stroke="#263238" stroke-linecap="round" stroke-linejoin="round"/>
<path d="M338.607 207.644C338.607 207.644 309.178 222.545 299.076 226.66C288.974 230.775 286.491 232.62 285.592 235.142C284.693 237.664 245.387 300.672 240.903 306.403C236.42 312.134 226.745 324.502 228.094 332.973C229.442 341.443 240.229 348.791 250.567 348.561C260.905 348.332 267.422 346.269 268.546 343.289C269.669 340.309 298.199 288.27 298.199 288.27L307.189 346.235H421.972C421.972 346.235 430.961 266.961 430.961 255.27C430.961 243.578 433.208 229.835 428.489 226.855C423.769 223.875 404.229 217.009 389.846 212.195C375.463 207.38 370.979 206.463 367.62 206.463C364.26 206.463 338.607 207.644 338.607 207.644Z" fill="white" stroke="#263238" stroke-linecap="round" stroke-linejoin="round"/>
<path d="M335.494 208.057C335.494 208.057 331.673 215.393 331.449 221.353C331.224 227.313 330.325 238.306 326.954 244.954C323.583 251.602 321.111 255.27 322.909 254.571C324.707 253.872 335.033 242.203 336.157 239.67C337.281 237.137 339.078 241.962 339.078 241.962C339.078 241.962 335.707 251.808 335.258 253.184C334.809 254.559 349.405 273.575 349.405 273.575C349.405 273.575 361.99 263.5 364.912 261.207C367.833 258.915 366.934 257.081 367.159 254.101C367.384 251.121 368.283 246.776 369.845 244.255C371.406 241.733 375.924 251.614 379.059 256.198C382.194 260.783 385.351 262.388 384.902 258.949C384.452 255.511 382.879 248.863 381.755 237.171C380.632 225.479 380.856 211.507 377.935 207.151C375.013 202.796 359.687 201.936 349.63 201.202C346.882 200.89 344.102 201.365 341.605 202.576C339.108 203.787 336.991 205.685 335.494 208.057Z" fill="white" stroke="#263238" stroke-linecap="round" stroke-linejoin="round"/>
<path d="M290.12 247.086L298.211 288.304L287.76 260.898" stroke="#263238" stroke-linecap="round" stroke-linejoin="round"/>
<path d="M336.618 219.106C336.618 219.106 339.764 236.976 342.685 250.719C344.292 258.542 346.547 266.211 349.427 273.644C349.427 273.644 364.26 248.209 368.53 234.924C370.955 227.595 372.833 220.088 374.148 212.47H336.618V219.106Z" stroke="#263238" stroke-linecap="round" stroke-linejoin="round"/>
<path d="M353.012 225.25L344.933 235.566L350.551 246.57L345.023 260.221C346.242 264.762 347.712 269.228 349.427 273.598C349.427 273.598 354.057 265.666 358.877 256.405L354.821 246.856L359.765 235.394L353.012 225.25Z" fill="#92E3A9" stroke="#263238" stroke-linecap="round" stroke-linejoin="round"/>
<path d="M336.618 212.458V219.107C336.618 219.107 338.786 231.44 341.191 243.487L352.563 231.245L364.552 244.794C366.052 241.577 367.376 238.279 368.519 234.913C370.944 227.583 372.822 220.077 374.137 212.458H336.618Z" fill="white" stroke="#263238" stroke-linecap="round" stroke-linejoin="round"/>
<path d="M238.69 313.189C238.69 313.189 259.669 305.371 270.984 324.387" stroke="#263238" stroke-linecap="round" stroke-linejoin="round"/>
<path d="M271.355 318.519C271.355 318.519 259.635 321.224 253.376 331.414C247.117 341.604 259.849 342.739 263.366 342.739C266.883 342.739 270.209 340.332 270.4 339.082C270.591 337.833 275.198 325.752 275.018 322.932C274.997 321.879 274.622 320.866 273.954 320.062C273.287 319.259 272.369 318.714 271.355 318.519Z" fill="white" stroke="#263238" stroke-linecap="round" stroke-linejoin="round"/>
<path d="M265.961 322.737C265.961 322.737 259.478 328.468 259.916 330.76C260.354 333.053 269.973 341.879 271.827 340.607C272.161 340.433 272.459 340.194 272.703 339.903C272.946 339.612 273.132 339.274 273.247 338.91C273.363 338.546 273.408 338.162 273.378 337.781C273.348 337.399 273.245 337.027 273.074 336.686C272.546 335.827 265.961 322.737 265.961 322.737Z" fill="white" stroke="#263238" stroke-linecap="round" stroke-linejoin="round"/>
<path d="M259.95 330.703C259.95 330.703 256.14 334.841 257.388 336.732C258.635 338.624 267.343 343.449 269.602 341.993C271.861 340.538 270.4 339.048 270.4 339.048L259.95 330.703Z" fill="white" stroke="#263238" stroke-linecap="round" stroke-linejoin="round"/>
<path d="M282.266 322.519L274.468 321.144L276.299 332.594L284.266 332.847L282.266 322.519Z" fill="white" stroke="#263238" stroke-linecap="round" stroke-linejoin="round"/>
<path d="M268.231 304.512L277.367 337.168L281.805 341.283V335.472L272.141 303.377C272.063 303.11 271.932 302.862 271.756 302.648C271.581 302.434 271.365 302.259 271.121 302.132C270.878 302.006 270.612 301.931 270.339 301.913C270.066 301.894 269.792 301.932 269.535 302.025C269.05 302.195 268.646 302.546 268.405 303.008C268.163 303.469 268.101 304.006 268.231 304.512Z" fill="#263238" stroke="#263238" stroke-linecap="round" stroke-linejoin="round"/>
<path d="M271.355 318.519C271.355 318.519 265.961 321.74 266.501 324.181C267.04 326.623 272.861 338.039 274.962 338.188C277.063 338.337 278.333 337.042 278.03 334.566C277.726 332.09 275.782 323.104 274.468 321.144C273.153 319.184 273.007 318.404 271.355 318.519Z" fill="white" stroke="#263238" stroke-linecap="round" stroke-linejoin="round"/>
<path d="M282.266 322.52C282.266 322.52 288.008 323.253 289.008 325.041C290.008 326.829 285.996 333.959 284.715 335.587C283.434 337.214 281.142 337.145 281.075 333.019C281.182 329.491 281.581 325.979 282.266 322.52Z" fill="white" stroke="#263238" stroke-linecap="round" stroke-linejoin="round"/>
<path d="M251.207 336.309H314.212C315.972 336.312 317.659 337.026 318.904 338.296C320.149 339.566 320.85 341.287 320.852 343.083C320.852 344.603 320.261 346.061 319.207 347.135C318.153 348.21 316.724 348.814 315.234 348.814H252.084C250.713 348.814 249.398 348.258 248.429 347.27C247.46 346.281 246.915 344.94 246.915 343.541V340.676C246.915 340.101 247.026 339.532 247.242 339.002C247.458 338.471 247.774 337.989 248.173 337.584C248.572 337.178 249.045 336.857 249.566 336.638C250.086 336.419 250.644 336.307 251.207 336.309Z" fill="white" stroke="#263238" stroke-linecap="round" stroke-linejoin="round"/>
<path d="M363.327 321.533C363.327 321.533 346.933 319.699 342.888 318.324C338.843 316.948 332.325 315.802 330.078 317.636C327.831 319.47 316.83 332.537 316.594 334.13C316.358 335.724 314.122 341.008 315.245 342.383C316.187 343.341 317.345 344.05 318.616 344.446C318.616 344.446 333.224 348.573 334.786 348.802C336.348 349.031 351.405 348.344 351.405 348.344L359.271 345.363L370.272 345.134C370.272 345.134 370.496 348.802 370.721 339.862C370.946 330.921 363.327 321.533 363.327 321.533Z" fill="white" stroke="#263238" stroke-linecap="round" stroke-linejoin="round"/>
<path d="M318.65 344.458C318.65 344.458 318.875 339.185 319.999 336.893C321.122 334.6 333.921 322.92 333.921 322.92" stroke="#263238" stroke-linecap="round" stroke-linejoin="round"/>
<path d="M322.875 345.811C322.875 345.811 325.122 340.08 326.021 339.621C326.92 339.163 337.472 332.285 337.472 332.285" stroke="#263238" stroke-linecap="round" stroke-linejoin="round"/>
<path d="M330.55 347.415C330.55 347.415 330.999 345.123 332.123 344.664C333.247 344.206 342.685 339.85 342.685 339.85" stroke="#263238" stroke-linecap="round" stroke-linejoin="round"/>
<path d="M340.663 348.561L344.933 347.415L344.483 345.352L339.989 346.498" stroke="#263238" stroke-linecap="round" stroke-linejoin="round"/>
<path d="M414.78 247.739C414.78 247.739 402.88 273.174 403.543 282.126C404.206 291.078 407.15 305.945 407.15 305.945C407.15 305.945 388.284 313.498 381.767 316.261C375.249 319.023 363.327 321.534 363.327 321.534L369.384 345.822L368.496 348.344H433.849C433.849 348.344 438.793 347.427 439.692 346.281C440.591 345.134 441.49 344.676 441.939 341.008C442.389 337.34 445.31 305.269 444.636 296.305C443.962 287.342 434.748 240.862 433.624 236.048C432.5 231.234 430.489 228.024 428.466 226.878C426.444 225.732 417.679 224.826 417.679 224.826" fill="white"/>
<path d="M414.78 247.739C414.78 247.739 402.88 273.174 403.543 282.126C404.206 291.078 407.15 305.945 407.15 305.945C407.15 305.945 388.284 313.498 381.767 316.261C375.249 319.023 363.327 321.534 363.327 321.534L369.384 345.822L368.496 348.344H433.849C433.849 348.344 438.793 347.427 439.692 346.281C440.591 345.134 441.49 344.676 441.939 341.008C442.389 337.34 445.31 305.269 444.636 296.305C443.962 287.342 434.748 240.862 433.624 236.048C432.5 231.234 430.489 228.024 428.466 226.878C426.444 225.732 417.679 224.826 417.679 224.826" stroke="#263238" stroke-linecap="round" stroke-linejoin="round"/>
<path d="M408.723 306.403C408.723 306.403 426.017 307.32 434.568 312.811" stroke="#263238" stroke-linecap="round" stroke-linejoin="round"/>
<path d="M411.859 304.111C411.859 304.111 423.994 303.423 430.511 305.486" stroke="#263238" stroke-linecap="round" stroke-linejoin="round"/>
<path d="M408.499 247.029C408.499 247.029 402.431 261.471 402.206 266.973C401.981 272.475 401.532 275.685 401.532 275.685" stroke="#263238" stroke-linecap="round" stroke-linejoin="round"/>
<path d="M380.868 208.791C380.868 208.791 394.565 228.689 383.553 284.178" stroke="#263238" stroke-width="2" stroke-linecap="round" stroke-linejoin="round"/>
<path d="M390.071 285.783C390.071 284.422 389.675 283.093 388.934 281.962C388.194 280.831 387.141 279.949 385.909 279.429C384.677 278.908 383.321 278.772 382.013 279.037C380.705 279.303 379.504 279.958 378.561 280.92C377.618 281.881 376.976 283.107 376.716 284.441C376.456 285.775 376.589 287.158 377.1 288.415C377.61 289.671 378.474 290.745 379.583 291.501C380.692 292.257 381.995 292.66 383.329 292.66C385.117 292.66 386.832 291.935 388.096 290.646C389.36 289.356 390.071 287.607 390.071 285.783Z" fill="white" stroke="#263238" stroke-linecap="round" stroke-linejoin="round"/>
<path d="M334.112 210.854C334.112 210.854 327.156 215.438 326.033 233.996" stroke="#263238" stroke-width="2" stroke-linecap="round" stroke-linejoin="round"/>
<path d="M335.696 262.113C333.999 274.63 331.685 288.075 331.202 291.021C330.078 297.325 322.74 299.526 318.021 297.463" stroke="#263238" stroke-width="2" stroke-linecap="round" stroke-linejoin="round"/>
<path d="M318.1 262.938C316.56 255.923 315.616 249.837 315.953 247.052C317.526 234.225 326.066 233.996 326.066 233.996C326.066 233.996 336.179 235.372 336.842 246.375C336.912 251.644 336.536 256.91 335.719 262.113" stroke="#263238" stroke-width="2" stroke-linecap="round" stroke-linejoin="round"/>
<path d="M337.067 296.546C337.067 296.546 332.348 299.297 329.201 297.463C327.078 296.225 321.336 277.564 318.1 262.938" stroke="#263238" stroke-width="2" stroke-linecap="round" stroke-linejoin="round"/>
<path d="M338.712 294.062L336.854 294.878C335.959 295.272 335.547 296.331 335.933 297.243L335.955 297.296C336.34 298.209 337.378 298.63 338.273 298.236L340.131 297.419C341.025 297.026 341.438 295.967 341.052 295.054L341.03 295.002C340.644 294.089 339.606 293.668 338.712 294.062Z" stroke="#263238" stroke-linecap="round" stroke-linejoin="round"/>
<path d="M318.604 295.304L316.87 294.242C316.034 293.73 314.951 294.006 314.449 294.858L314.42 294.907C313.918 295.759 314.189 296.865 315.024 297.377L316.758 298.439C317.593 298.951 318.677 298.675 319.179 297.823L319.208 297.774C319.709 296.922 319.439 295.816 318.604 295.304Z" stroke="#263238" stroke-linecap="round" stroke-linejoin="round"/>
<path d="M326.066 155.411C326.066 155.411 322.471 164.11 323.145 169.612C323.819 175.114 331.01 181.075 331.01 181.075C331.01 181.075 333.483 156.557 333.483 155.64C333.483 154.723 328.977 152.66 326.066 155.411Z" fill="#263238" stroke="#263238" stroke-linecap="round" stroke-linejoin="round"/>
<path d="M323.482 186.577L328.258 183.172" stroke="#263238" stroke-width="2" stroke-linecap="round" stroke-linejoin="round"/>
<path d="M328.752 157.015C328.752 157.015 327.853 181.304 328.302 185.877C328.752 190.451 330.55 205.122 332.123 209.707C333.696 214.292 338.865 228.952 342.91 230.557C346.955 232.162 355.035 233.308 357.731 231.474C360.428 229.64 370.305 222.774 373.002 216.126C374.601 212.249 375.66 208.164 376.148 203.987C378.391 202.767 380.327 201.036 381.808 198.929C383.289 196.822 384.275 194.396 384.688 191.837C386.037 183.126 382.441 180.616 382.441 180.616L382.666 165.486C382.666 165.486 380.194 154.952 373.676 149.221C367.159 143.489 359.529 143.031 351.664 147.387C343.798 151.742 328.752 157.015 328.752 157.015Z" fill="white" stroke="#263238" stroke-linecap="round" stroke-linejoin="round"/>
<path d="M370.979 155.64C370.979 155.64 371.204 149.679 365.597 151.743C359.99 153.806 358.63 157.703 350.315 161.142C342 164.58 330.999 160.683 327.19 158.391C323.381 156.098 320.673 152.889 325.842 146.928C331.011 140.968 343.135 135.019 356.181 135.019C369.227 135.019 379.317 146.011 383.587 150.596C387.857 155.181 388.531 160.912 386.958 165.027C385.385 169.142 382.463 180.616 382.463 180.616C382.463 180.616 380.665 180.387 379.991 183.126C379.317 185.866 379.542 188.857 376.62 189.087C373.699 189.316 373.923 181.304 373.923 181.304C373.923 181.304 366.743 179.011 365.844 173.739C364.945 168.466 370.979 160.683 370.979 155.64Z" fill="#263238" stroke="#263238" stroke-linecap="round" stroke-linejoin="round"/>
<path d="M344.225 190.313L323.448 186.577L324.651 196.079C324.725 196.67 324.983 197.221 325.388 197.65C325.793 198.079 326.322 198.364 326.898 198.463L339.528 200.492C340.222 200.606 340.933 200.441 341.51 200.03C342.087 199.619 342.484 198.995 342.618 198.291L344.225 190.313Z" stroke="#263238" stroke-width="2" stroke-linecap="round" stroke-linejoin="round"/>
<path d="M348.012 190.715L372.103 190.004L369.743 198.899C369.54 199.498 369.152 200.013 368.638 200.369C368.123 200.724 367.51 200.9 366.889 200.87L352.282 201.076C351.524 201.13 350.774 200.903 350.167 200.438C349.56 199.973 349.138 199.3 348.978 198.543L348.012 190.715Z" stroke="#263238" stroke-width="2" stroke-linecap="round" stroke-linejoin="round"/>
<path d="M344.259 190.313L348.012 190.714" stroke="#263238" stroke-width="2" stroke-linecap="round" stroke-linejoin="round"/>
<path d="M372.103 190.004L379.969 183.126" stroke="#263238" stroke-width="2" stroke-linecap="round" stroke-linejoin="round"/>
<path d="M351.214 187.941C351.214 187.941 357.956 182.679 364.249 185.877" stroke="#263238" stroke-width="2" stroke-linecap="round" stroke-linejoin="round"/>
<path d="M341.112 186.794C341.112 186.794 335.943 181.063 330.1 184.96" stroke="#263238" stroke-width="2" stroke-linecap="round" stroke-linejoin="round"/>
<path d="M342.461 206.727C342.461 206.727 341.337 211.541 342.461 212.458C344.374 213.535 346.582 213.938 348.742 213.604" stroke="#263238" stroke-linecap="round" stroke-linejoin="round"/>
<path d="M339.09 216.081C339.09 216.081 343.584 219.519 347.854 219.749C352.124 219.978 357.057 216.768 357.057 216.768" stroke="#263238" stroke-linecap="round" stroke-linejoin="round"/>
<path d="M355.709 192.755C355.709 192.755 358.406 195.964 362.9 192.525" stroke="#263238" stroke-linecap="round" stroke-linejoin="round"/>
<path d="M333.584 191.345C333.584 191.345 335.831 194.898 340.73 192.113" stroke="#263238" stroke-linecap="round" stroke-linejoin="round"/>
<path d="M194.215 155.617C194.215 155.617 195.642 177.452 194.563 179.275L191.406 184.731C191.406 184.731 192.833 200.388 189.979 202.199C187.767 203.408 185.341 204.152 182.843 204.389C182.843 204.389 179.989 216.034 178.91 217.49C177.832 218.946 171.416 223.68 169.281 224.368C167.146 225.055 160.359 225.514 144.301 215.633C128.244 205.753 122.176 202.532 122.536 197.076C122.896 191.62 123.66 185.43 123.66 185.43C123.66 185.43 125.446 159.216 128.66 151.215C131.874 143.214 172.551 138.836 181.472 141.025C190.394 143.214 194.215 155.617 194.215 155.617Z" fill="white" stroke="#263238" stroke-linecap="round" stroke-linejoin="round"/>
<path d="M152.819 191.643L155.325 193.465C155.325 193.465 153.178 202.199 154.201 206.211" stroke="#263238" stroke-linecap="round" stroke-linejoin="round"/>
<path d="M188.495 184.33C188.136 186.003 187.271 187.218 186.574 187.058C185.877 186.898 185.596 185.43 185.967 183.757C186.338 182.083 187.192 180.868 187.889 181.029C188.585 181.189 188.866 182.668 188.495 184.33Z" fill="#263238"/>
<path d="M184.855 177.647C184.855 177.647 188.743 173.681 191.99 177.43" stroke="#263238" stroke-linecap="round" stroke-linejoin="round"/>
<path d="M179.944 152.705C179.944 152.705 184.574 161.44 184.225 163.262C183.877 165.085 169.236 169.452 169.236 169.452C169.236 169.452 167.808 178.186 165.662 179.275L163.527 180.364C161.816 177.993 160.379 175.427 159.246 172.719C156.752 167.263 153.178 165.841 149.257 171.263C145.335 176.685 148.538 189.465 150.684 190.554L152.819 191.643C152.819 191.643 151.032 193.465 144.256 194.566C137.481 195.666 132.48 197.11 127.491 195.655C122.502 194.199 115.356 180.364 112.884 162.529C110.411 144.693 118.232 129.414 128.615 124.703C138.998 119.992 162.516 124.336 164.291 125.425C166.067 126.514 178.214 120.703 185.349 124.336C192.484 127.97 192.091 131.982 193.911 134.526C195.732 137.071 204.968 133.804 205.687 142.905C206.407 152.006 202.833 157.462 198.192 158.184C193.552 158.906 179.944 152.705 179.944 152.705Z" fill="#263238" stroke="#263238" stroke-linecap="round" stroke-linejoin="round"/>
<path d="M95.4556 209.845C95.4556 209.845 61.2624 228.448 54.7451 232.128C48.2278 235.807 47.2502 239.108 46.8794 242.444C46.5086 245.779 46.8794 358.041 46.8794 358.041H231.577C231.577 358.041 203.564 272.246 202.642 262.663C201.721 253.081 199.721 236.082 197.114 234.088C194.507 232.093 157.696 215.484 157.696 215.484C157.696 215.484 148.897 205.856 128.065 205.856C107.232 205.856 95.4556 209.845 95.4556 209.845Z" fill="#92E3A9" stroke="#263238" stroke-linecap="round" stroke-linejoin="round"/>
<path d="M116.625 278.194C117.592 278.584 118.569 278.939 119.547 279.272" stroke="#263238" stroke-linecap="round" stroke-linejoin="round"/>
<path d="M80.1624 247.384C80.1624 247.384 93.6464 266.572 112.063 276.04" stroke="#263238" stroke-linecap="round" stroke-linejoin="round"/>
<path d="M91.8711 269.632C91.8711 269.632 99.3547 277.278 114.985 281.599" stroke="#263238" stroke-linecap="round" stroke-linejoin="round"/>
<path d="M184.664 242.1C179.461 248.129 172.135 257.769 169.708 266.64" stroke="#263238" stroke-linecap="round" stroke-linejoin="round"/>
<path d="M190.215 236.082C190.215 236.082 189.181 237.102 187.563 238.856" stroke="#263238" stroke-linecap="round" stroke-linejoin="round"/>
<path d="M171.652 256.015C171.652 256.015 166.764 265.643 165.797 271.627" stroke="#263238" stroke-linecap="round" stroke-linejoin="round"/>
<path d="M93.5002 211.496C93.5002 211.496 112.389 210.831 130.3 211.163C148.212 211.496 159.943 217.146 159.943 217.146C159.943 217.146 149.189 203.862 144.313 200.87C139.436 197.878 124.446 192.846 112.074 196.881C104.453 199.493 97.9122 204.639 93.5002 211.496Z" fill="#92E3A9" stroke="#263238" stroke-linecap="round" stroke-linejoin="round"/>
<path d="M39.789 357.915L22.5744 290.586C22.4073 289.768 22.421 288.923 22.6146 288.111C22.8082 287.3 23.1768 286.543 23.6934 285.895C24.2101 285.247 24.8619 284.725 25.6013 284.366C26.3408 284.008 27.1493 283.822 27.968 283.823H164.932C166.19 283.824 167.411 284.263 168.392 285.067C169.372 285.872 170.055 286.994 170.326 288.247L185.529 357.984" fill="#263238"/>
<path d="M39.789 357.915L22.5744 290.586C22.4073 289.768 22.421 288.923 22.6146 288.111C22.8082 287.3 23.1768 286.543 23.6934 285.895C24.2101 285.247 24.8619 284.725 25.6013 284.366C26.3408 284.008 27.1493 283.822 27.968 283.823H164.932C166.19 283.824 167.411 284.263 168.392 285.067C169.372 285.872 170.055 286.994 170.326 288.247L185.529 357.984" stroke="#263238" stroke-linecap="round" stroke-linejoin="round"/>
</svg>
